---
title: Model diagram
---

classDiagram
    Match --> MatchObserver
    Match --> MatchObserverCallable
    Match --> GameDeck
    Match --> MatchState
    Match --> DrawSource
    Match -- Player
    MatchState <|-- WaitState
    MatchState <|-- NextTurnState
    MatchState <|-- ChooseInitialSideState
    MatchState <|-- ChooseSecretObjectiveState
    MatchState <|-- AfterMoveState
    MatchState <|-- AfterDrawState
    MatchState <|-- FinalState

    Card <|-- InitialCard
    Card <|-- PlayableCard
    GameDeck --> Card
    PlayableCard <|-- ResourceCard
    PlayableCard <|-- GoldCard

    Board -- PlacementOutcome
    Requirement <|-- QuantityRequirement
    Requirement <|-- PositionRequirement
    Requirement <-- Objective
    QuantityRequirement <-- GoldCard

    Board --> PlacedCard
    Side <-- PlacedCard
    Player --> Board
    Player --> Objective
    Player --> Color
    CardFace <-- Card
    Symbol <-- CardFace
    Board --> Requirement
    %%Side <-- Player
    %%Side <-- Match
    Corner <-- CardFace
    %% Symbol <-- GoldCard
    %% DrawSource <-- Player


    class Symbol {
        <<Enumeration>>
        ANIMAL
        PLANT
        INSECT
        FUNGUS
        FEATHER
        INKWELL
        PARCHMENT
        EMPTY_CORNER
        FULL_CORNER
        CORNER_OBJ
        NO_MULT

        + getReigns() EnumSet~Symbol~ <<Static>>
        + getBasicResources() EnumSet~Symbol~ <<Static>>
        + getValidCorner() EnumSet~Symbol~ <<Static>>
        + getValidMultiplier( EnumSet~Symbol~ <<Static>>)
    }

    class Corner {
      <<Enumeation>>
      TOP_LEFT
      TOP_RIGHT
      BOTTOM_LEFT
      BOTTOM_RIGHT
    }

    class CardFace {
        <<Record>>
        - topLeft: Symbol
        - topRight: Symbol
        - bottomLeft: Symbol
        - bottomRight: Symbol
        - center: Set~Symbol~

        + CardFace(Symbol topLeft, Symbol topRight, Symbol bottomLeft, Symbol bottomRight, Set~Symbol~ center)
        + getCorner(Corner corner) Symbol
        + getCenter() Set~Symbol~
    }

    class Card {
        <<Abstract>>
        %% # sides : Map~Side, CardFace~
        # front : CardFace
        # back : CardFace

        + getSide(Side side) CardFace
    }

    class PlayableCard {
        <<Abstract>>
        # reign: Symbol
        # points: int

        + PlayableCard(Symbol reign)
        + getReign() Symbol
    }

    class InitialCard {
        + InitialCard(CardFace front, CardFace back)
    }

    class ResourceCard {
        + ResourceCard(CardFace front, Symbol reign, int points)
        + getPoints() int
    }

    class GoldCard {
        - multiplier: Symbol
        - req: QuantityRequirement

        + GoldCard(CardFace front, Symbol reign, int points, Symbol multiplier, QuantityRequirement req)
        + getMultiplier() Symbol
        + getRequirement() QuantityRequirement
        + getPoints() int
        + calculatePoints(Board board, Pair~Integer, Integer~ coord) int
    }

    class Requirement {
        <<Abstract>>
        + Requirement()
        + timesMet(Board board) int
    }

    class QuantityRequirement {
        - reqs : Map~Symbol, Integer~

        + QuantityRequirement(Map~Symbol, Integer~ reqs)
        + getReqs() Map~Symbol, Integer~
        + timesMet(Board board) int
    }

    class PositionRequirement {
        - reqs: Map&ltPair&ltInteger, Integer&gt, Symbol&gt

        + PositionRequirement(Map&ltPair&ltInteger, Integer&gt, Symbol&gt reqs)
        + getReqs() Map&ltPair&ltInteger, Integer&gt, Symbol&gt
        + timesMet(Board board) int
    }
    
    class Objective {
        - points: int
        - req: Requirement

        + Objective(int points, Requirement req)
        + getPoints() int
        + getRequirement() Requirement
    }
    
    class Player {
        - nickname: String
        - match: Match
        - points: Int
        - board: Board
        - pawnColor: Color
        - secretObjective: Objective

        + Player(String nickname, Match match)
        + playCard(Pair<Integer, Integer> coord, PlayableCard card, Side side) void
        + drawSecretObjective() Pair~Objective, Objective~
        + drawInitialCard() InitialCard
        + drawCard(DrawSource source) void
        + chooseSecretObjective(Objective objective) void
        + chooseInitialCardSide(Side side) void
        + getBoard() Board
        + getPoints() int
        + getSecretObjective() Objective
        + getPawnColor() Color
        + getNickname() String
        # setColor() void
    }
    
    class Color {
        <<Enumeration>>
        RED
        BLUE
        GREEN
        YELLOW
    }
    
    class Side {
        <<Enumeration>>
        FRONT
        BACK
    }
    
    class Board {
        - currentHand: List~PlayableCard~
        - placed: Map&ltPair&ltInteger,Integer&gt, PlacedCard&gt
        - availableResources: Map~Symbol, Integer~

        + Board()
        + getAvailableResources() Map~Symbol, Integer~
        + getPlacedCards() Map&ltPair&ltInteger, Integer&gt, PlacedCard&gt
        + getCurrentHand() List~PlayableCard~
        + verifyCardPlacement(Pair~Integer, Integer~ coords, Card card, Side side) PlacementOutcome
        # removeHandCard(PlayableCard card) void
        # addHandCard(PlayableCard card) void
        # setInitialCard(InitialCard card, Side side) void
        # placeCard(Pair~Integer, Integer~ coord, PlayableCard card, Side side, int turn) int
    }
    
    class PlacedCard {
        - card: Card
        - turn: int
        - playedSide: Side

        + PlacedCard(Card card, Side playedSide, int turn)
        + getCard() Card
        + getPlayedSide() Side
        + getTurn() int
        + getPlayedCardFace() CardFace
    }

    class Match {
        - players: List~Players~
        - maxPlayers: int
        - currentPlayer: Player
        - currState: MatchState
        - initialsDeck: GameDeck~InitialCard~
        - resourcesDeck: GameDeck~ResourceCard~
        - goldsDeck: GameDeck~GoldCard~
        - objectivesDeck: GameDeck~Objective~
        - visiblePlayableCards: Map~DrawSource, PlayableCard~
        - visibleObjectives: Pair~Objective, Objective~
        - decksTopReigns: Pair~Symbol, Symbol~
        - currentProposedObjectives: Pair~Objective, Objective~
        - currentGivenInitialCard: InitialCard
        - started: boolean
        - initialTurnFinished: boolean
        - lastTurn: boolean
        - finished: boolean

        + Match(int maxPlayers, GameDeck~InitialCard~ initialsDeck, GameDeck~ResourceCard~ resourcesDeck, GameDeck~GoldCard~ goldsDeck, GameDeck~Objective~ objectivesDeck) void
        + isFull() boolean
        + isStarted() boolean
        + isInitialTurnFinished() boolean
        + isFinished() boolean
        + addPlayer(Player player) void
        + removePlayer(Player player) void
        + getCurrentPlayer() Player
        + getCurrentState() MatchState
        + getPlayers() List~Player~
        + getMaxPlayers() int
        + getVisiblePlayableCards Map~DrawSource, PlayableCard~
        + getVisibleObjectives() Pair~Objective, Objective~
        + getDeckVisibleReign() Pair~Symbol, Symbol~
        + getPlayersFinalRanking() List~Pair~Player, Boolean~~
        + subscribeObserver(MatchObserver) void
        + unsubscribeObserver(MatchObserver) void
        # getPoints() int
        # addPoints() void
        # setSecretObjective(Objective obj) void
        # proposeSecretObjectives() Pair~Objective, Objective~
        # makeMove(Pair~Integer, Integer~ coords, PlayableCard card, Side side) void
        # drawCard(DrawSource draw) PlayableCard
        # drawInitialCard() InitialCard
        # setInitialSide(Side side) void
        # doStart() void
        # doInitialTurnFinish() void
        # doFinish() void
        # setState(MatchState state) void
        # setupDecks() void
        # setupPlayers() void
        # setupBoards() void
        # nextPlayer() void
        # decideWinner() void
        # sendBroadcastText(Player sender, String content) void
        # sendPrivateText(Player sender, Player receiver, String content) void
        - checkObjectivesAchievement() Map~Player, Integer~      
        - notifyObservers(MatchObserverCallable matchObserver) void
    }
      class MatchObserver{
        <<Interface>>
        + someoneSetInitialSide(Player someone, Side side, Map~Symbol, Integer~ availableResources) void
        + someoneJoined(Player someone) void
        + someoneQuit(Player someone) void
        + someoneChoseSecretObjective(Player someone, Objective objective) void
        + matchFinished() void
        + someoneDrewSecretObjective(Player someone, Pair~Objective, Objective~ objectives) void
        + someoneSentBroadcastText(Player someone, String content) void
        + someoneDrewCard(Player someone, DrawSource drawSource, PlayableCard card, PlayableCard replacementCard) void
        + someoneSentPrivateText(Player someone, Player receiver, String content) void
        + someoneDrewInitialCard(Player someone, InitialCard card) void
        + someonePlayedCard(Player someone, Pair~Integer, Integer~ coords, PlayableCard card, Side side) void
        + matchStarted() void
      } 

    class MatchObserverCallable {
      <<FunctionalInterface>>
      +call(MatchObserver matchObserver) void
    }
    class DrawSource {
        <<Enumeration>>
        GOLDS_DECK,
        RESOURCES_DECK,
        FIRST_VISIBLE,
        SECOND_VISIBLE,
        THIRD_VISIBLE,
        FOURTH_VISIBLE
    }

    class MatchState {
        <<Abstract>>
        - match: Match

        + MatchState(Match match)
        + transition() void
        + addPlayer() void
        + removePlayer() void
	    + proposeSecretObjectives() void
	    + chooseSecretObjective() void
        + chooseInitialSide() void
        + drawInitialCard() void
	    + makeMove() void
	    + drawCard() void
	    # getMatch() Match
    }

    class WaitState{
        + WaitState(Match match) void
        + transition() void
        + addPlayer() void
        + removePlayer() void
    }
    
    class NextTurnState {
        + NextTurnState(Match match) void
        + proposeSecretObjectives() void
        + makeMove() void
        + drawInitialCard() void
        + transition() void
    }
    
    class ChooseInitialSideState{ 
        + ChooseInitialSideState(Match match) void
        + chooseInitialSide(Side side) void
        + transition() void
    }
    
    class ChooseSecretObjectiveState {
        + ChooseSecretObjectiveState() void
        + chooseSecretObjective() void
        + transition() void
    }

    class AfterMoveState {
        + AfterMoveState() void
        + drawCard() void
        + transition() void
    }

    class AfterDrawState {
        + AfterDrawState() void
        + transition() void
    }

    class FinalState{
        + FinalState() void
        + transition() void
    }

    class PlacementOutcome {
        <<Enumeration>>
        VALID,
        INVALID_COORDS,
        INVALID_ENOUGH_RESOURCES,
    }
    
    class GameDeck {
        <<Generics>>
        - cardsList: List~T~

        + GameDeck()
        + add(T card) void
        + getSize() int
        + pop() T
        + poll() T
        + peek() T
        + shuffle() void
        + isEmpty() void
    }

